<?xml version="1.0" encoding="UTF-8"?>
<svg width="80px" height="80px" viewBox="0 0 80 80" version="1.1" xmlns="http://www.w3.org/2000/svg" xmlns:xlink="http://www.w3.org/1999/xlink">
    <!-- Generator: Sketch 59.1 (86144) - https://sketch.com -->
    <title>Icons/Tomatometer &amp; AS/popcorn_red</title>
    <desc>Created with Sketch.</desc>
    <defs>
        <polygon id="path-1" points="0.0178438662 0.124907063 59.6019307 0.124907063 59.6019307 79.9821561 0.0178438662 79.9821561"></polygon>
    </defs>
    <g id="Icons/Tomatometer-&amp;-AS/popcorn_red" stroke="none" stroke-width="1" fill="none" fill-rule="evenodd">
        <g id="Group-2">
            <rect id="Rectangle-Copy" fill="#000000" opacity="0" x="0" y="0" width="80" height="80"></rect>
            <g id="RT_Audience_RedPopcorn_RGB-(2)" transform="translate(10.111524, 0.000000)">
                <g id="Group-4">
                    <mask id="mask-2" fill="white">
                        <use xlink:href="#path-1"></use>
                    </mask>
                    <g id="Clip-2"></g>
                    <path d="M2.53115242,19.0988848 C2.76163569,23.9952416 14.8892193,27.8762825 29.8007435,27.7912268 C42.8237918,27.7168773 53.6874349,24.6411896 56.3485502,20.6004461 C55.7421561,19.9265428 54.904684,19.4643866 53.9613383,19.3391822 C53.9714498,19.220223 53.9779926,19.1003717 53.9773978,18.9787361 C53.9663941,17.0423792 52.5460223,15.4477323 50.695316,15.1503346 C50.7440892,14.8999257 50.7696654,14.6408922 50.7681784,14.3759108 C50.7559851,12.2194796 48.9977695,10.481487 46.8413383,10.4936803 C46.7925651,10.4939777 46.7449814,10.4999257 46.6965056,10.5020074 C46.8344981,10.0987361 46.9118216,9.66780669 46.9094424,9.21784387 C46.8969517,7.06141264 45.1390335,5.32342007 42.9826022,5.33561338 C42.4877323,5.33858736 42.0169517,5.43702602 41.5821561,5.60743494 C40.9653532,4.44639405 39.7811152,3.63717472 38.4002974,3.54379182 C38.1597026,1.60743494 36.5055762,0.113605948 34.506171,0.124843367 C33.247881,0.13204461 32.1350186,0.736356877 31.4263197,1.66453532 C30.7075093,0.882379182 29.6773234,0.391672862 28.5314498,0.398215613 C26.3750186,0.410408922 24.637026,2.16862454 24.6492193,4.32475836 C24.6515985,4.73665428 24.718513,5.13249071 24.8386617,5.50453532 C23.9586617,5.66780669 23.1848327,6.12520446 22.6191822,6.77144981 C22.1701115,5.09888476 20.642974,3.86973978 18.8297398,3.8798513 C17.1357621,3.88966543 15.7040892,4.97873606 15.172342,6.48981413 C13.7332342,7.07182156 12.7202974,8.48356877 12.7298141,10.1302602 C12.7318959,10.4960595 12.7878067,10.8481784 12.8838662,11.1836431 C12.398513,10.9713011 11.8634944,10.852342 11.2996283,10.8556134 C9.5994052,10.8654275 8.16327138,11.9622305 7.63598513,13.4822305 C7.13040892,13.2472862 6.56832714,13.1137546 5.973829,13.1173234 C3.81739777,13.1295167 2.07910781,14.8874349 2.09153162,17.0438662 C2.09546468,17.7549442 2.29263941,18.4187361 2.62810409,18.9909294 C2.59390335,19.0254275 2.56386617,19.063197 2.53115242,19.0988848" id="Fill-1" fill="#F9D320" mask="url(#mask-2)"></path>
                    <path d="M50.9736803,68.1576208 C49.8275093,69.89829 47.6002974,71.7008178 45.2692937,72.9026022 L49.2541264,32.4853532 C51.7894424,31.6707807 54.2634944,30.5915242 56.085948,29.0438662 L50.9736803,68.1576208 Z M41.3037918,74.5885502 C37.4450558,75.8655762 35.201487,76.2614126 31.9895911,76.5766543 L32.4901115,35.0432714 C36.0383643,34.9415613 40.6301859,34.4606691 44.5427509,33.6255762 L41.3037918,74.5885502 Z M18.29829,74.5885502 L15.0596283,33.6255762 C18.9718959,34.4606691 23.5637175,34.9415613 27.1119703,35.0432714 L27.6124907,76.5766543 C24.4005948,76.2614126 22.1573234,75.8655762 18.29829,74.5885502 Z M8.62869888,68.1576208 L3.51613383,29.0438662 C5.33858736,30.5915242 7.81263941,31.6707807 10.3479554,32.4853532 L14.3327881,72.9026022 C12.0017844,71.7008178 9.77457249,69.89829 8.62869888,68.1576208 Z M50.687881,13.6110037 C50.7384387,13.8578439 50.7666914,14.1130112 50.7681784,14.3750186 C50.7696654,14.64 50.7440892,14.8990335 50.6950186,15.1494424 C52.5460223,15.4465428 53.9663941,17.0411896 53.9773978,18.9778439 C53.9779926,19.0991822 53.9714498,19.2193309 53.9613383,19.3379926 C54.904684,19.463197 55.7421561,19.9253532 56.3485502,20.5992565 C53.6877323,24.6402974 42.8237918,27.7159851 29.8010409,27.790632 C14.8895167,27.8759851 2.76193309,23.9952416 2.53115242,19.0985874 C2.56386617,19.063197 2.59390335,19.0251301 2.62810409,18.9909294 C2.39791822,18.5983643 2.23910781,18.1608922 2.15702602,17.6966543 C0.729219331,19.0518959 -0.13472119,20.1445353 0.0172490706,21.7356134 C0.0318215613,21.9482528 6.3339777,67.0709294 6.3339777,67.0709294 C7.06111524,74.2173978 17.4388104,79.9292193 29.8010409,80 C42.1632714,79.9292193 52.5412639,74.2173978 53.2681041,67.0709294 C53.2681041,67.0709294 59.5702602,21.9482528 59.5848327,21.7356134 C59.8866914,18.5531599 56.162974,15.6642379 50.687881,13.6110037 L50.687881,13.6110037 Z" id="Fill-3" fill="#DB382A" mask="url(#mask-2)"></path>
                </g>
                <path d="M15.0596283,33.6255762 L18.29829,74.5885502 C22.1573234,75.8655762 24.4005948,76.2614126 27.6124907,76.5766543 L27.1119703,35.0432714 C23.5637175,34.9415613 18.9718959,34.4606691 15.0596283,33.6255762" id="Fill-5" fill="#FFFFFE"></path>
                <path d="M31.9895911,76.5766543 C35.201487,76.2614126 37.4447584,75.8655762 41.3037918,74.5885502 L44.5424535,33.6255762 C40.6301859,34.4606691 36.0383643,34.9415613 32.4901115,35.0432714 L31.9895911,76.5766543" id="Fill-6" fill="#FFFFFE"></path>
                <path d="M45.2692937,72.9026022 C47.6002974,71.7008178 49.8275093,69.89829 50.9733829,68.1576208 L56.085948,29.0438662 C54.2634944,30.5915242 51.7894424,31.6707807 49.2541264,32.4853532 L45.2692937,72.9026022" id="Fill-7" fill="#FFFFFE"></path>
                <path d="M3.51613383,29.0438662 L8.62840149,68.1576208 C9.77457249,69.89829 12.0017844,71.7008178 14.3327881,72.9026022 L10.3479554,32.4853532 C7.81263941,31.6707807 5.33858736,30.5915242 3.51613383,29.0438662" id="Fill-8" fill="#FFFFFE"></path>
            </g>
        </g>
    </g>
</svg>