<?xml version="1.0" encoding="UTF-8"?>
<svg width="80px" height="80px" viewBox="0 0 80 80" version="1.1" xmlns="http://www.w3.org/2000/svg" xmlns:xlink="http://www.w3.org/1999/xlink">
    <!-- Generator: Sketch 59.1 (86144) - https://sketch.com -->
    <title>Icons/Tomatometer &amp; AS/popcorn_green</title>
    <desc>Created with Sketch.</desc>
    <defs>
        <polygon id="path-1" points="0 0.0868196721 73.9209774 0.0868196721 73.9209774 55.0662295 0 55.0662295"></polygon>
        <polygon id="path-3" points="0.174163934 0.233704918 76.5972459 0.233704918 76.5972459 27.0006557 0.174163934 27.0006557"></polygon>
    </defs>
    <g id="Icons/Tomatometer-&amp;-AS/popcorn_green" stroke="none" stroke-width="1" fill="none" fill-rule="evenodd">
        <g id="Group">
            <rect id="Rectangle" fill="#000000" opacity="0" x="0" y="0" width="80" height="80"></rect>
            <g id="RT_Audience_GreenPopcorn_RGB-(2)" transform="translate(0.000000, 12.459016)">
                <g id="Group-5">
                    <mask id="mask-2" fill="white">
                        <use xlink:href="#path-1"></use>
                    </mask>
                    <g id="Clip-2"></g>
                    <path d="M45.4780328,39.6152131 C45.9506885,38.4445902 47.6259672,37.7314098 48.8288525,37.8148197 C50.114623,37.904 51.4803934,39.2556066 51.719082,40.584918 C51.7634098,40.5366557 51.8098361,40.4910164 51.8570492,40.4461639 C52.2699016,40.0516721 52.7871475,39.7899016 53.3531803,39.7177705 C53.266623,39.3342951 53.2459016,38.9238033 53.3051803,38.5025574 C53.5142295,37.0205902 54.7034754,35.9092459 56.0650492,35.9202623 C56.9437377,35.9273443 57.714623,36.376918 58.216918,37.067541 C58.2617705,37.0114098 58.3113443,36.96 58.3596066,36.907541 C58.9340328,33.9152787 59.2980984,30.5345574 59.3809836,26.9468852 C59.6655738,14.6103607 56.5356066,4.53193443 52.3902951,4.43645902 C48.2447213,4.34072131 44.653377,14.2638689 44.3687869,26.6003934 C44.3687869,26.6003934 44.1492459,31.1000656 45.4780328,39.6152131" id="Fill-1" fill="#185A30" mask="url(#mask-2)"></path>
                    <path d="M73.5446557,53.1058361 C73.7896393,52.696918 73.9265574,52.2066885 73.9171148,51.6857705 C73.9965902,50.002623 72.8411803,48.4768525 71.2335738,48.6457705 C71.28,48.4532459 71.3104262,48.2531148 71.3222295,48.0466885 C71.4184918,46.3606557 70.2557377,44.907541 68.7249836,44.8013115 C68.6914098,44.7992131 68.6583607,44.7981639 68.6250492,44.7971148 C68.7842623,44.3787541 68.8632131,43.9116066 68.8351475,43.4166557 C68.7559344,42.0139016 67.7885902,40.832 66.5300984,40.5993443 C66.075541,40.5154098 65.634623,40.5571148 65.2309508,40.696918 C64.8495738,39.757377 64.0487869,39.060459 63.074623,38.9133115 C62.9975082,37.3878033 61.8956066,36.1321967 60.4768525,36.0338361 C59.5847869,35.9719344 58.7651148,36.3816393 58.216918,37.067541 C57.714623,36.376918 56.9437377,35.9276066 56.0650492,35.9204395 C54.7034754,35.9092459 53.5142295,37.0205902 53.3051803,38.5028197 C53.2459016,38.9238033 53.266623,39.3342951 53.3531803,39.7180328 C52.7871475,39.7899016 52.2699016,40.0519344 51.8570492,40.4461639 C51.8098361,40.4910164 51.7634098,40.5366557 51.719082,40.584918 C51.4803934,39.2556066 50.114623,37.9042623 48.8288525,37.8148197 C47.6259672,37.7314098 45.928918,38.4621639 45.4780328,39.6152131 C45.6758033,41.6259672 46.9327213,47.1071475 51.4788197,52.0241311 L51.5192131,52.0270164 C51.9575082,52.4236066 52.5298361,52.6420984 53.1399344,52.5878033 C53.5181639,52.5539672 53.8664918,52.418623 54.1665574,52.2098361 L54.2397377,52.2148197 C54.6397377,52.4925902 55.1205246,52.6379016 55.6285902,52.5927869 C55.8226885,52.5754754 56.0078689,52.5287869 56.1838689,52.4621639 C56.6192787,53.3623607 57.5902951,53.9441311 58.6740984,53.8486557 C59.5134426,53.7746885 60.2268852,53.3104262 60.6462951,52.6570492 L60.7821639,52.6664918 C61.2010492,53.0817049 61.7579016,53.323541 62.3585574,53.3054426 C62.855082,54.0566557 63.767082,54.5188197 64.7735082,54.4304262 C65.1525246,54.3971148 65.5063607,54.2874754 65.8219016,54.1214426 C66.3483279,54.7690492 67.2123279,55.1540984 68.1602623,55.0706885 C69.0974426,54.9885902 69.8890492,54.4689836 70.3197377,53.7505574 C70.7428197,54.0902295 71.272918,54.2725246 71.8358033,54.2224262 C72.3819016,54.1736393 72.8671475,53.9158033 73.2317377,53.5257705 L73.2925902,53.5299672 C73.3754754,53.4098361 73.4462951,53.2868197 73.5121311,53.1627541 C73.5137049,53.1603934 73.5150164,53.1577705 73.5163279,53.1554098 C73.5252459,53.1388852 73.5362623,53.122623 73.5446557,53.1058361" id="Fill-3" fill="#F9D320" mask="url(#mask-2)"></path>
                    <path d="M42.2090492,9.21232787 L6.56209836,12.7268197 C7.62203279,10.6709508 9.21206557,8.70662295 10.7472787,7.6957377 L45.2440656,3.18662295 C43.8793443,4.79422951 42.9272131,6.9762623 42.2090492,9.21232787 Z M45.2440656,49.5517377 L10.7472787,45.042623 C9.21206557,44.032 7.62203279,42.0674098 6.56209836,40.0118033 L42.2090492,43.5262951 C42.9272131,45.7620984 43.8793443,47.9443934 45.2440656,49.5517377 Z M5.07514754,36.5143607 C3.94885246,33.1108197 3.6,31.1323279 3.32170492,28.2992787 L39.9527869,28.7409836 C40.0427541,31.8701639 40.4668852,35.9202623 41.2031475,39.3707541 L5.07514754,36.5143607 Z M5.07514754,16.224 L41.2031475,13.3676066 C40.4668852,16.8180984 40.0427541,20.8681967 39.9527869,23.9976393 L3.32170492,24.439082 C3.6,21.6062951 3.94885246,19.627541 5.07514754,16.224 Z M56.7186885,3.84865574 C54.4333115,1.18767213 52.7926557,-0.0616393443 51.3872787,0.100721311 C51.1252459,0.134032787 11.4032787,5.67213115 11.4032787,5.67213115 C5.10006557,6.31318033 0.0624262295,15.4659672 0,26.3693115 C0.0624262295,37.2723934 5.10006557,46.4251803 11.4032787,47.0664918 C11.4032787,47.0664918 51.1997377,52.6247869 51.3872787,52.6376393 C51.7196066,52.635541 52.0477377,52.5909508 52.3711475,52.5080656 C52.0563934,52.4144262 51.7660328,52.2504918 51.5192131,52.0270164 L51.4788197,52.0241311 C46.9327213,47.1074098 45.6758033,41.6259672 45.4780328,39.6152131 C45.4785574,39.6136393 45.4796066,39.6123279 45.4801311,39.6107541 C45.4796066,39.6123279 45.4785574,39.6136393 45.4780328,39.6152131 C44.1492459,31.1000656 44.3687869,26.6003934 44.3687869,26.6003934 C44.653377,14.2638689 48.2447213,4.34072131 52.3902951,4.43619672 C56.5356066,4.53193443 59.6655738,14.6103607 59.3809836,26.9468852 C59.2980984,30.5345574 58.9340328,33.9152787 58.3596066,36.907541 C58.9497705,36.2562623 59.741377,35.9819016 60.4768525,36.0338361 C60.6121967,36.043541 60.7438689,36.0663607 60.872918,36.096 C63.3904262,22.3210492 60.7512131,8.87029508 56.7186885,3.84865574 L56.7186885,3.84865574 Z" id="Fill-4" fill="#129B47" mask="url(#mask-2)"></path>
                </g>
                <path d="M41.2031475,13.3676066 L5.07514754,16.224 C3.94885246,19.627541 3.6,21.6062951 3.32170492,24.439082 L39.9527869,23.997377 C40.0427541,20.8681967 40.4668852,16.8180984 41.2031475,13.3676066" id="Fill-6" fill="#FFFFFE"></path>
                <path d="M45.2440656,3.18662295 L10.7472787,7.6957377 C9.21206557,8.70662295 7.62203279,10.6709508 6.56209836,12.7268197 L42.2090492,9.21232787 C42.9272131,6.9762623 43.8793443,4.79422951 45.2440656,3.18662295" id="Fill-7" fill="#FFFFFE"></path>
                <path d="M6.56209836,40.011541 C7.62203279,42.0674098 9.21206557,44.032 10.7472787,45.042623 L45.2440656,49.5517377 C43.8793443,47.9443934 42.9272131,45.7620984 42.2090492,43.5262951 L6.56209836,40.011541" id="Fill-8" fill="#FFFFFE"></path>
                <g id="Group-12" transform="translate(3.147541, 28.065574)">
                    <mask id="mask-4" fill="white">
                        <use xlink:href="#path-3"></use>
                    </mask>
                    <g id="Clip-10"></g>
                    <path d="M36.8052459,0.675409836 L0.174163934,0.233704918 C0.452459016,3.0664918 0.801311475,5.0452459 1.92760656,8.44878689 L38.0556066,11.3051803 C37.3193443,7.85468852 36.8952131,3.80459016 36.8052459,0.675409836" id="Fill-9" fill="#FFFFFE" mask="url(#mask-4)"></path>
                </g>
            </g>
        </g>
    </g>
</svg>