<?xml version="1.0" encoding="UTF-8"?>
<svg width="80px" height="80px" viewBox="0 0 80 80" version="1.1" xmlns="http://www.w3.org/2000/svg" xmlns:xlink="http://www.w3.org/1999/xlink">
    <!-- Generator: Sketch 59.1 (86144) - https://sketch.com -->
    <title>Icons/Tomatometer &amp; AS/certified_fresh</title>
    <desc>Created with Sketch.</desc>
    <defs>
        <polygon id="path-1" points="0.0156351792 0.00599348534 75.8047696 0.00599348534 75.8047696 15.619544 0.0156351792 15.619544"></polygon>
    </defs>
    <g id="Icons/Tomatometer-&amp;-AS/certified_fresh" stroke="none" stroke-width="1" fill="none" fill-rule="evenodd">
        <g id="Group-4">
            <rect id="Rectangle" fill="#000000" opacity="0" x="0" y="0" width="80" height="80"></rect>
            <g id="RT_CertifiedFreshSeal_wTEXT_RGB" transform="translate(2.084691, 0.000000)">
                <g id="Group-3" transform="translate(0.000000, 64.364821)">
                    <mask id="mask-2" fill="white">
                        <use xlink:href="#path-1"></use>
                    </mask>
                    <g id="Clip-2"></g>
                    <path d="M75.705798,5.352443 C73.2779153,3.00325733 70.3517915,1.1676873 67.0944625,0.00599348534 C65.9692508,3.17863192 64.8669707,6.3562215 63.7878827,9.53824104 C63.7670358,9.59895765 63.6818241,9.63465798 63.5934853,9.61928339 C63.5794137,9.61667752 60.9052769,9.14892508 58.9451466,8.88156352 C58.8742671,9.66254072 58.784886,10.5550489 58.784886,10.5550489 C62.9149186,10.8164169 66.446645,12.8211075 68.5269055,15.5830619 C68.5915309,15.6557655 68.6926384,15.6518567 68.723127,15.574202 C69.4342671,12.7046254 69.6297068,9.64273616 69.2708795,6.55843648 C69.2734853,6.52560261 69.298241,6.50188925 69.3399349,6.49302932 C71.2815635,5.88273616 73.4290554,5.54892508 75.7138762,5.58306189 C75.8379153,5.59609121 75.8347883,5.47648208 75.705798,5.352443 M17.0199349,10.5550489 C12.8899023,10.8164169 9.3581759,12.8211075 7.27791531,15.5830619 C7.2132899,15.6557655 7.11192182,15.6518567 7.08143322,15.574202 C6.37029316,12.7046254 6.17511401,9.64273616 6.53394137,6.55843648 C6.5313355,6.52560261 6.5065798,6.50188925 6.46488599,6.49302932 C4.52299674,5.88273616 2.37576547,5.54892508 0.0909446254,5.58306189 C-0.0330944625,5.59609121 -0.0299674267,5.47648208 0.0990228013,5.352443 C2.52612378,3.00403909 5.45198697,1.16846906 8.70801303,0.0067752443 C9.83322476,3.17889251 10.934202,6.35648208 12.0132899,9.53824104 C12.0338762,9.59895765 12.1193485,9.63465798 12.2076873,9.61928339 C12.2222801,9.61667752 14.8674919,9.15309446 16.8596743,8.88104235 C16.9396743,9.7180456 17.0199349,10.5550489 17.0199349,10.5550489" id="Fill-1" fill="#3DAD55" mask="url(#mask-2)"></path>
                </g>
                <path d="M18.0307492,15.5460586 C18.1615635,16.3364169 18.0781759,16.8351792 17.5444951,17.379544 C17.1932248,17.7381107 16.7786319,17.9129642 16.2874267,17.9041042 C15.7959609,17.8957655 15.3500977,17.6885993 14.9573941,17.3034528 C14.5714658,16.925342 14.362215,16.490684 14.3437134,16 C14.3252117,15.5085342 14.4779153,15.0908143 14.8221498,14.7390228 C15.3086645,14.2428664 15.7104886,14.1771987 16.3932248,14.2115961 L16.3567427,12.6220195 C15.3047557,12.5506189 14.3874919,12.9078827 13.6242345,13.6867752 C12.9284691,14.3966124 12.5957003,15.2190228 12.605342,16.1607818 C12.6214984,17.0955049 12.9777199,17.9035831 13.687557,18.5993485 C14.3976547,19.2948534 15.2200651,19.6552443 16.1482736,19.6594545 C17.0762215,19.6638436 17.8848208,19.3073616 18.5803257,18.5975244 C19.4381759,17.722215 19.7829316,16.7223453 19.6148534,15.6117264 L18.0307492,15.5460586" id="Fill-4" fill="#0A0B09"></path>
                <polyline id="Fill-5" fill="#0A0B09" points="21.9059283 13.7641694 21.2880782 12.7851466 23.8751792 11.1523127 23.082215 9.89550489 20.4948534 11.5278176 19.9437134 10.6548534 22.6697068 8.93446254 21.8457329 7.62892508 17.5364169 10.3481433 21.1468404 16.069316 25.4561564 13.3498371 24.6319218 12.0440391 21.9059283 13.7641694"></polyline>
                <path d="M27.6763518,8.60820847 L26.8909446,8.87765472 L26.3749837,7.37094463 L27.1603909,7.10175896 C27.9270358,6.83882736 28.3309446,6.94540717 28.5063192,7.45667752 C28.6845603,7.9770684 28.4067752,8.3580456 27.6763518,8.60820847 Z M30.1740717,6.90553746 C29.6859935,5.48091205 28.4310098,5.03400651 26.7601303,5.60651466 L24.2126384,6.47921824 L26.4057329,12.8802606 L28.0677524,12.3103583 L27.3886645,10.3293811 L28.0461238,10.1037134 L29.9028013,11.6815635 L31.8110749,11.0274919 L29.6685342,9.2114658 C30.3163518,8.57120521 30.4839088,7.8095114 30.1740717,6.90553746 L30.1740717,6.90553746 Z" id="Fill-6" fill="#0A0B09"></path>
                <polyline id="Fill-7" fill="#0A0B09" points="36.4114658 3.68677524 31.017329 4.33745928 31.2023453 5.87022801 33.0225407 5.65055375 33.6476873 10.8338762 35.4011726 10.6225407 34.7760261 5.43895765 36.5962215 5.21954397 36.4114658 3.68677524"></polyline>
                <polyline id="Fill-8" fill="#0A0B09" points="38.5920521 10.5331596 40.3460586 10.6287948 40.7153094 3.87335505 38.9613029 3.77745928 38.5920521 10.5331596"></polyline>
                <polyline id="Fill-9" fill="#0A0B09" points="47.9765472 6.81381107 48.3392834 5.31283388 43.7042345 4.19335505 42.1154397 10.7702932 43.8230619 11.1825407 44.4078176 8.7619544 47.1194788 9.41732899 47.4684039 7.97211726 44.7570033 7.31726384 45.0493811 6.10684039 47.9765472 6.81381107"></polyline>
                <polyline id="Fill-10" fill="#0A0B09" points="50.7361564 6.26918567 48.025798 12.4682736 49.6351792 13.1718567 52.345798 6.97276873 50.7361564 6.26918567"></polyline>
                <polyline id="Fill-11" fill="#0A0B09" points="53.5934853 13.6325733 54.2454723 12.6751792 56.7744625 14.3971336 57.6109446 13.1679479 55.0819544 11.4465147 55.6630619 10.5923127 58.3278176 12.4065147 59.1971336 11.1301629 54.9844951 8.26241042 51.1765472 13.855114 55.3891857 16.7233876 56.2585016 15.4465147 53.5934853 13.6325733"></polyline>
                <path d="M61.6307492,18.2759609 C60.7007166,19.1179153 59.7623453,19.0170684 58.8169381,17.9721173 L58.499544,17.6213681 L61.225798,15.153355 L61.5366775,15.4970684 C62.4885993,16.5490554 62.5180456,17.4728339 61.6307492,18.2759609 Z M63.9919218,16.9584365 C63.8712704,16.0914658 63.4780456,15.3407166 62.830228,14.6254072 L61.1916612,12.8148534 L56.1758958,17.35557 L57.8144625,19.1658632 C59.0386971,20.5180456 60.9128339,21.3084039 62.8161564,19.5851466 C63.7248208,18.7627362 64.1130945,17.8254072 63.9919218,16.9584365 L63.9919218,16.9584365 Z" id="Fill-12" fill="#0A0B09"></path>
                <line x1="41.5309446" y1="22.4484691" x2="41.1658632" y2="22.4247557" id="Fill-13" fill="#DB382A"></line>
                <path d="M68.7674267,65.3708143 C68.727557,65.3443036 68.6874267,65.3177929 68.6472964,65.291672 C68.72443,65.3415746 68.7676873,65.3704245 68.7676873,65.3704245 M67.3951792,64.534557 C67.295114,64.4791964 67.1950489,64.4246155 67.0944625,64.3708143 C67.1958306,64.4246155 67.2964169,64.4795863 67.3951792,64.534557" id="Fill-14" fill="#79C08D"></path>
                <path d="M63.7878827,73.9030619 C64.8291857,70.8364821 66.0099023,67.4285342 67.0944625,64.3708143 C67.1950489,64.4067752 67.295114,64.4432573 67.3951792,64.4802606 C67.9421498,64.6845603 68.4297068,64.8917264 68.6472964,64.9863192 C68.6874267,65.0037785 68.727557,65.0214984 68.7674267,65.0392182 L63.7878827,73.9030619" id="Fill-15" fill="#0EA248"></path>
                <path d="M7.03791531,65.0389577 L7.03791531,65.0389577 C7.03791531,65.0389577 7.04990228,65.0334853 7.07283388,65.0235831 C7.06136808,65.0285342 7.04938111,65.0337459 7.03791531,65.0389577" id="Fill-16" fill="#79C08D"></path>
                <path d="M12.0083388,73.8887296 L7.03791531,65.0389577 C7.04938111,65.0337459 7.06136808,65.0285342 7.07283388,65.0235831 C7.23335505,64.9532248 7.92703583,64.6540717 8.70540717,64.3726384 C9.78684039,67.4220195 10.9667752,70.8224104 12.0059935,73.8814332 C12.0067752,73.8837785 12.007557,73.8863844 12.0083388,73.8887296" id="Fill-17" fill="#0EA248"></path>
                <path d="M58.784886,74.9198697 L58.9451466,73.2463844 C58.8745277,74.0247557 58.7856678,74.9138762 58.784886,74.9198697 M63.6143322,73.9867101 C63.6072964,73.9861889 63.6005212,73.9851466 63.5934853,73.9841042 C63.5851466,73.9825407 62.6319218,73.8157655 61.4480782,73.6247557 C62.1766775,73.7409772 62.9031922,73.8624104 63.6143322,73.9867101" id="Fill-18" fill="#309E53"></path>
                <path d="M58.784886,74.9198697 L58.784886,74.9198697 C58.7856678,74.9138762 58.8745277,74.0247557 58.9451466,73.2463844 C59.7680782,73.3636482 60.6095114,73.4908143 61.4480782,73.6247557 C62.6319218,73.8157655 63.5851466,73.9825407 63.5934853,73.9841042 C63.6005212,73.9851466 63.6072964,73.9861889 63.6143322,73.9867101 C63.6158958,73.9869707 63.6177199,73.9872313 63.619544,73.9877524 L58.784886,74.9198697" id="Fill-19" fill="#129346"></path>
                <path d="M12.1876221,73.9867101 C12.8531596,73.870228 13.5325081,73.7563518 14.214202,73.6469055 C13.0923779,73.8290554 12.2160261,73.9825407 12.2076873,73.9841042 C12.2009121,73.9851466 12.1943974,73.9859283 12.1876221,73.9867101" id="Fill-20" fill="#309E53"></path>
                <path d="M17.0199349,74.9198697 L12.1821498,73.9877524 C12.1839739,73.9872313 12.185798,73.9869707 12.1876221,73.9867101 C12.1943974,73.9859283 12.2009121,73.9851466 12.2076873,73.9841042 C12.2160261,73.9825407 13.0923779,73.8290554 14.214202,73.6469055 C15.1001954,73.5046254 15.9903583,73.3696417 16.8596743,73.2458632 C16.8797394,73.455114 16.8998046,73.6643648 16.9185668,73.8605863 C16.937329,74.0568078 16.9547883,74.24 16.9699023,74.396873 C16.9847557,74.5537459 16.9972638,74.6845603 17.0061238,74.7760261 C17.0149837,74.8677524 17.0199349,74.9198697 17.0199349,74.9198697" id="Fill-21" fill="#129346"></path>
                <path d="M63.3170033,59.0499023 C62.9482736,58.9943974 62.579544,58.9414984 62.2105537,58.8883388 C65.7592182,54.685342 67.980456,49.4113355 68.1550489,43.3412378 C68.3291205,49.3996091 66.4932899,54.7213029 63.3170033,59.0499023" id="Fill-22" fill="#ADADAA"></path>
                <path d="M12.0786971,59.1114007 C9.53198697,55.5046254 7.90514658,51.1632573 7.59400651,46.1766775 C7.53250814,45.1887948 7.51166124,44.2069055 7.53537459,43.2343974 C7.54631922,43.6922476 7.56534202,44.1514007 7.59400651,44.6118567 C7.9465798,50.2647557 9.98905537,55.0892508 13.147101,58.9534853 C12.7908795,59.0056026 12.4343974,59.0569381 12.0786971,59.1114007" id="Fill-23" fill="#ADADAA"></path>
                <path d="M43.2320521,68.4367427 C43.4618893,68.5018893 43.7167427,68.5401954 43.9953094,68.5511401 C43.7422801,68.5112704 43.4876873,68.4732248 43.2320521,68.4367427" id="Fill-24" fill="#E3662A"></path>
                <path d="M9.84912052,59.4704886 C9.2570684,58.7447557 8.68925081,57.9958306 8.15061889,57.2208469 C3.93771987,51.1583062 1.71074919,44.0364821 1.71074919,36.624886 C1.71074919,27.0684039 5.45928339,18.2353094 12.265798,11.7529642 C19.0102932,5.32977199 28.0948534,1.7923127 37.8465147,1.7923127 C47.5981759,1.7923127 56.6829967,5.32977199 63.4274919,11.7529642 C70.2337459,18.2353094 73.9822801,27.0684039 73.9822801,36.624886 C73.9822801,44.0078176 71.7712052,51.1069707 67.588013,57.1551792 C67.0402606,57.9473616 66.4609772,58.7119218 65.8574593,59.4530293 C66.4792182,59.5562215 67.1001954,59.6633225 67.7206515,59.7735505 C72.6842997,53.3771987 75.6442997,45.3482736 75.6442997,36.624886 C75.6442997,15.7500977 58.7215635,0.13029316 37.8465147,0.13029316 C16.9714658,0.13029316 0.048990228,15.7500977 0.048990228,36.624886 C0.048990228,45.356873 3.01472313,53.3930945 7.98697068,59.7925733 C8.60716612,59.6818241 9.22762215,59.574202 9.84912052,59.4704886" id="Fill-25" fill="#E3662A"></path>
                <path d="M64.2337459,62.9756352 L64.1284691,62.9756352 L64.1284691,62.7778502 L64.2337459,62.7778502 C64.3387622,62.7778502 64.3929642,62.8096417 64.3929642,62.8734853 C64.3929642,62.940456 64.3387622,62.9756352 64.2337459,62.9756352" id="Fill-26" fill="#E3662A"></path>
                <path d="M64.2337459,62.7778502 L64.1284691,62.7778502 L64.1284691,62.9756352 L64.2337459,62.9756352 C64.3387622,62.9756352 64.3929642,62.940456 64.3929642,62.8734853 C64.3929642,62.8096417 64.3387622,62.7778502 64.2337459,62.7778502" id="Fill-27" fill="#128843"></path>
                <path d="M21.2727036,64.5420195 C20.7210423,64.5420195 20.2300977,64.9641694 20.2300977,65.5455375 C20.2300977,66.1203909 20.7210423,66.5378502 21.2727036,66.5378502 C21.8418241,66.5378502 22.3153094,66.1388925 22.3153094,65.5455375 C22.3153094,64.9547883 21.8332248,64.5420195 21.2727036,64.5420195" id="Fill-28" fill="#128843"></path>
                <path d="M55.1890554,64.2624104 C54.7020195,64.2624104 54.3598697,64.5649511 54.2676221,64.9993485 L56.0706189,64.9993485 C56.0312704,64.5779805 55.7284691,64.2624104 55.1890554,64.2624104" id="Fill-29" fill="#128843"></path>
                <path d="M64.3898371,63.3897068 L64.236873,63.1700326 L64.1284691,63.1700326 L64.1284691,63.3897068 L63.9119218,63.3897068 L63.9119218,62.5899674 L64.2717915,62.5899674 C64.4630619,62.5899674 64.612899,62.6824756 64.612899,62.8734853 C64.612899,62.997785 64.5586971,63.0840391 64.4471661,63.1348534 L64.6353094,63.3897068 L64.3898371,63.3897068 Z M64.2337459,62.3572638 C64.0583713,62.3572638 63.9085342,62.4211075 63.7876221,62.5485342 C63.6664495,62.6728339 63.6059935,62.8291857 63.6059935,63.0105537 C63.6059935,63.1921824 63.6664495,63.3451466 63.7876221,63.4694463 C63.9085342,63.5937459 64.0583713,63.6544625 64.2337459,63.6544625 C64.4122476,63.6544625 64.5618241,63.5937459 64.6829967,63.4694463 C64.8072964,63.3451466 64.8677524,63.1921824 64.8677524,63.0105537 C64.8677524,62.8291857 64.8072964,62.6728339 64.6829967,62.5485342 C64.5618241,62.4211075 64.4122476,62.3572638 64.2337459,62.3572638 L64.2337459,62.3572638 Z" id="Fill-30" fill="#128843"></path>
                <path d="M29.7581759,59.68443 C30.0711401,59.6779153 30.2340065,60.5904886 31.0314007,60.5485342 C31.3897068,60.529772 31.5801954,60.0849511 31.3980456,59.7761564 L31.3938762,59.7691205 C31.2351792,59.5082736 30.9878827,59.4092508 30.7067101,59.36 C30.5128339,59.3261238 30.3147883,59.3076221 30.1352443,59.2171987 C30.0401303,59.1689902 29.9812378,59.0952443 29.9812378,58.9824104 C29.9812378,58.8661889 30.027101,58.7799349 30.1323779,58.7267752 C30.2871661,58.6488599 30.4536808,58.6530293 30.620456,58.6517264 C30.7366775,58.6509446 30.8440391,58.6220195 30.9334202,58.5396743 C31.1325081,58.3562215 31.174202,58.0203257 31.04443,57.7761564 C30.8802606,57.4678827 30.5263844,57.4327036 30.2717915,57.5932248 C30.0943322,57.7050163 30.0312704,57.8824756 29.9833225,58.0737459 C29.9504886,58.2042997 29.8699674,58.4104235 29.6018241,58.4002606 C29.397785,58.392443 29.290684,58.190228 29.3279479,57.9895765 C29.36,57.8168078 29.421759,57.6638436 29.4446906,57.4895114 C29.4699674,57.2985016 29.4407818,57.1192182 29.290684,56.9852769 C29.1783713,56.8852117 29.0407818,56.8388274 28.8870358,56.8560261 C28.8870358,56.8560261 28.5000651,56.8682736 28.3682085,57.2109446 C28.2071661,57.6291857 28.4732248,57.7610423 28.6618893,57.9142671 C28.7676873,58.0005212 28.8763518,58.0883388 28.9172638,58.229316 C28.948013,58.3353746 28.9209121,58.4515961 28.8390879,58.5044951 C28.7283388,58.5761564 28.5586971,58.563127 28.4349186,58.4588925 C28.2910749,58.3377199 28.2462541,58.0469055 27.9656026,57.9374593 C27.7313355,57.8459935 27.4246254,57.9309446 27.3201303,58.1394137 C27.1812378,58.4174593 27.3586971,58.6767427 27.6591531,58.7979153 C27.8290554,58.8661889 28.3932248,58.8904235 28.3632573,59.1757655 C28.3371987,59.4235831 27.8287948,59.2281433 27.6005212,59.3128339 C27.2351792,59.4483388 27.2203257,59.8040391 27.3024104,59.9887948 C27.4191531,60.2514658 27.7477524,60.335114 27.9843648,60.2272313 C28.2459935,60.1081433 28.468013,59.5736808 28.7413681,59.7104886 C29.0019544,59.8407818 28.7478827,60.1472313 28.7348534,60.4469055 C28.723127,60.7140065 28.9107492,60.975114 29.3605212,60.9292508 C29.6312704,60.9018893 29.8624104,60.5774593 29.7060586,60.2905537 C29.661759,60.2092508 29.5911401,60.0781759 29.5658632,59.9890554 C29.5197394,59.8267101 29.6247557,59.6870358 29.7581759,59.68443" id="Fill-31" fill="#128843"></path>
                <path d="M37.5593485,64.674658 C37.2672313,64.674658 37.0209772,64.7778502 36.8474267,64.9730293 C36.694202,65.1455375 36.609772,65.3764169 36.609772,65.6239739 C36.609772,66.2472964 37.0876873,66.5735505 37.5593485,66.5735505 C37.8514658,66.5735505 38.0977199,66.4703583 38.2712704,66.2749186 C38.4244951,66.102671 38.5089251,65.8715309 38.5089251,65.6239739 C38.5089251,65.0006515 38.0312704,64.674658 37.5593485,64.674658" id="Fill-32" fill="#128843"></path>
                <path d="M64.8518567,63.6320521 C64.6829967,63.8009121 64.4758306,63.8869055 64.2337459,63.8869055 C63.9914007,63.8869055 63.7876221,63.8009121 63.6185016,63.6320521 C63.4530293,63.4598046 63.3701629,63.2526384 63.3701629,63.0105537 C63.3701629,62.7650814 63.4530293,62.5579153 63.6185016,62.3859283 C63.7876221,62.2139414 63.9914007,62.1279479 64.2337459,62.1279479 C64.4758306,62.1279479 64.6829967,62.2139414 64.8518567,62.3859283 C65.0207166,62.5579153 65.1069707,62.7650814 65.1069707,63.0105537 C65.1069707,63.2526384 65.0207166,63.4598046 64.8518567,63.6320521 Z M62.6241042,68.0899023 C62.1576547,68.4745277 61.5444951,68.6704886 60.8028664,68.6704886 C59.8413029,68.6704886 59.0616287,68.4687948 58.3637785,68.0114658 L58.2319218,67.9184365 L59.1418893,66.4169381 C60.1868404,67.0869055 60.7267752,66.9865798 60.9326384,66.970684 C61.3847557,66.9357655 61.4337459,66.4357003 61.0598046,66.4445603 C60.7723779,66.4510749 60.2048208,66.510228 59.363127,66.1183062 C58.7744625,65.7579153 58.3906189,65.3383713 58.3906189,64.6459935 C58.3906189,64.0482085 58.6389577,63.5588274 59.1288599,63.1914007 C59.5997394,62.8383062 60.0500326,62.6428664 60.7215635,62.6118567 C61.5921824,62.5717264 62.2228013,62.7611726 63.0045603,63.1635179 L63.1692508,63.2729642 L62.3390228,64.6407818 C61.4295765,64.2764821 60.9581759,64.1771987 60.6282736,64.2402606 C60.2418241,64.3137459 60.2975896,64.6887296 60.582671,64.7267752 C60.8677524,64.7645603 61.3229967,64.6420847 62.1805863,64.9464495 C62.9250814,65.2437785 63.3672964,65.7276873 63.3672964,66.5527036 C63.3672964,67.1760261 63.1171336,67.6930293 62.6241042,68.0899023 Z M58.068013,66.1008469 L54.2676221,66.1008469 C54.3734202,66.5592182 54.8810423,66.8179805 55.3514007,66.8179805 C55.9041042,66.8179805 56.3108795,66.7484039 56.6029967,66.3635179 L57.9908795,67.669316 C57.2281433,68.4813029 56.2738762,68.6407818 55.375114,68.6407818 C54.4813029,68.6407818 53.740456,68.3702932 53.1523127,67.8410423 C52.56443,67.3120521 52.2704886,66.5829316 52.2704886,65.6656678 C52.2704886,64.7601303 52.5409772,64.0310098 53.0936808,63.4665798 C53.6463844,62.8901629 54.3637785,62.6079479 55.2338762,62.6079479 C56.1394137,62.6079479 56.8450814,62.8901629 57.3388925,63.4665798 C57.8327036,64.0427362 58.0797394,64.7364169 58.0797394,65.5598697 L58.068013,66.1008469 Z M49.4499023,68.5089251 C47.828013,68.9003257 46.0239739,68.1936156 45.6088599,66.4740065 C45.3159609,65.260456 45.7563518,64.2767427 46.590228,63.6336156 C46.6699674,63.5684691 46.769772,63.5054072 46.8367427,63.482215 C46.4198046,63.5179153 46.1678176,63.497329 45.9137459,63.5828013 C45.8858632,63.5921824 45.8605863,63.562215 45.8743974,63.5361564 C46.1461889,63.0212378 46.7700326,62.7700326 47.211987,62.940456 C46.9117915,62.6783062 46.6759609,62.4690554 46.6759609,62.4690554 L47.0874267,62.1287296 C47.0874267,62.1287296 47.3508795,62.5175244 47.5424104,62.8005212 C47.7941368,62.2376547 48.4187622,62.0797394 48.7491857,62.389316 C48.7687296,62.407557 48.7575244,62.4406515 48.7309446,62.4448208 C48.5123127,62.4779153 48.4317915,62.7046254 48.4492508,62.8568078 L48.6389577,62.8330945 C50.1917915,62.6342671 51.5278176,63.4076873 51.9012378,64.9553094 C52.3163518,66.6749186 51.0717915,68.1172638 49.4499023,68.5089251 Z M45.1570033,68.5276873 L45.024886,68.5334202 C44.7937459,68.5433225 44.4849511,68.5566124 44.1641694,68.5566124 C42.6423453,68.5566124 41.7693811,67.7928339 41.7693811,66.3145277 L41.7693811,64.7312052 L41.1768078,64.7312052 L41.1768078,62.7572638 L41.7693811,62.7572638 L41.7693811,61.1958306 L44.0398697,61.1958306 L44.0398697,62.7572638 L44.9355049,62.7572638 L44.9355049,64.7312052 L44.0398697,64.7312052 L44.0398697,66.1662541 C44.0398697,66.4448208 44.1589577,66.5639088 44.4375244,66.5639088 L45.1570033,66.5639088 L45.1570033,68.5276873 Z M40.7403257,68.4841694 L38.541759,68.4841694 L38.541759,67.8410423 L38.3989577,67.9940065 C38.0036482,68.4171987 37.5067101,68.6407818 36.9610423,68.6407818 C36.570684,68.6407818 36.1615635,68.5235179 35.7777199,68.3014984 C34.9211726,67.8063844 34.4104235,66.803127 34.4109442,65.618241 C34.4114658,64.4385668 34.9224756,63.4397394 35.7777199,62.9464495 C36.1615635,62.7249511 36.5683388,62.6079479 36.9545277,62.6079479 C37.501759,62.6079479 38.0010423,62.8372638 38.3984365,63.2711401 L38.541759,63.4277524 L38.541759,62.769772 L40.7403257,62.769772 L40.7403257,68.4841694 Z M34.0291857,68.4914658 L31.7237785,68.4914658 L31.7237785,65.3792834 C31.7237785,64.8904235 31.5147883,64.6426059 31.1022801,64.6426059 C30.6918567,64.6426059 30.6095114,64.9000651 30.582671,64.9847557 C30.5117915,65.2385668 30.4998046,65.3834528 30.4998046,65.6912052 L30.4998046,68.4914658 L28.2277524,68.4914658 L28.2277524,65.3792834 C28.2277524,64.8904235 28.015114,64.6426059 27.5953094,64.6426059 C27.356873,64.6426059 27.2010423,64.7585668 27.1400651,64.8578502 C27.0970684,64.9224756 27.0647557,65.0394788 27.04443,65.1215635 C27.0037785,65.356873 27.0037785,65.4410423 27.0037785,65.6912052 L27.0037785,68.4914658 L24.7953094,68.4914658 L24.7953094,62.7572638 L26.9816287,62.7572638 L26.9800651,63.2961564 C27.135114,62.9800651 27.726645,62.6079479 28.5563518,62.6079479 C29.2393485,62.6079479 29.7837134,62.8427362 30.1300326,63.2867752 L30.1912704,63.3654723 L30.2574593,63.290684 C30.6704886,62.8231922 31.1439739,62.6235831 31.8410423,62.6235831 C32.4990228,62.6235831 34.0291857,62.8727036 34.0291857,65.1783713 L34.0291857,68.4914658 Z M21.3141368,68.6407818 C19.6484691,68.6407818 18.1315961,67.6036482 18.1315961,65.6244951 C18.1315961,64.0471661 19.0647557,63.0681433 20.3207818,62.7356352 C21.0186319,62.5831922 21.436873,62.5589577 22.1957003,62.708013 C23.5025407,63.0108143 24.4135505,64.0005212 24.4135505,65.6244951 C24.4135505,67.6036482 22.9800651,68.6407818 21.3141368,68.6407818 Z M16.9355049,68.4914658 L14.7226059,68.4914658 L14.7226059,63.1403257 L12.7734202,63.1403257 L12.7734202,60.9639088 L18.8849511,60.9639088 L18.8849511,63.1403257 L16.9355049,63.1403257 L16.9355049,68.4914658 Z M68.4810423,59.9077524 C63.3970033,58.9790228 58.2655375,58.2889902 53.1114007,57.829316 C53.1411075,58.0299674 53.1580456,58.2433876 53.1580456,58.4719218 L53.1580456,61.7779805 L50.8714007,61.7779805 L50.8714007,58.6613681 C50.8714007,58.1811075 50.6639739,57.9374593 50.255114,57.9374593 C49.8264495,57.9374593 49.5609121,58.1180456 49.5609121,59.0175896 L49.5609121,61.7779805 L47.2716612,61.7779805 L47.2716612,57.4063844 C47.1421498,57.3993485 47.012899,57.3915309 46.8833876,57.3847557 C46.8859935,57.4413029 46.8899023,57.4968078 46.8899023,57.5543974 L46.8781759,58.0953746 L43.077785,58.0953746 C43.1835831,58.5540065 43.6912052,58.8127687 44.1615635,58.8127687 C44.7142671,58.8127687 45.1210423,58.7431922 45.4131596,58.3580456 L46.8010423,59.6641042 C46.0383062,60.4760912 45.0840391,60.63557 44.1852769,60.63557 C43.2914658,60.63557 42.5506189,60.3650814 41.9624756,59.8358306 C41.3745928,59.3065798 41.0806515,58.5777199 41.0806515,57.660456 C41.0806515,57.4944625 41.092899,57.3368078 41.1111401,57.1828013 C40.9610423,57.1799349 40.8112052,57.1770684 40.6611075,57.1744625 L40.6611075,58.022671 L39.7662541,58.022671 L39.7662541,59.4564169 C39.7662541,59.7349837 39.8850814,59.8538111 40.1636482,59.8538111 L40.8823453,59.8538111 L40.8823453,61.8157655 L40.750228,61.8214984 C40.5196091,61.8311401 40.2110749,61.84443 39.8902932,61.84443 C38.369772,61.84443 37.4978502,61.0816938 37.4978502,59.60443 L37.4978502,58.022671 L36.9055375,58.022671 L36.9055375,57.1541368 C36.7590879,57.1549186 36.6126384,57.1572638 36.4661889,57.1585668 L36.4661889,58.0185016 L35.5715961,58.0185016 L35.5715961,59.4522476 C35.5715961,59.7305537 35.6904235,59.8493811 35.9689902,59.8493811 L36.6874267,59.8493811 L36.6874267,61.8115961 L36.55557,61.8170684 C36.3246906,61.8269707 36.0161564,61.8402606 35.6956352,61.8402606 C34.175114,61.8402606 33.3029316,61.0772638 33.3029316,59.6002606 L33.3029316,58.0185016 L32.7108795,58.0185016 L32.7108795,57.2278827 C32.5013681,57.2341368 32.2918567,57.2429967 32.0823453,57.2500326 C32.3486645,57.6966775 32.5011075,58.2499023 32.5011075,58.9097068 C32.5011075,60.8880782 31.1262541,61.9246906 29.3573941,61.9246906 C27.5887948,61.9246906 26.1308143,60.8880782 26.1308143,58.9097068 C26.1308143,58.3864495 26.2353094,57.9304235 26.4185016,57.5405863 C26.2801303,57.5497068 26.141759,57.5588274 26.0033876,57.5684691 C25.8621498,58.2170684 25.5009772,58.7218241 24.922215,59.0717915 L24.8508143,59.1150489 L26.4375244,61.7779805 L23.8707492,61.7779805 L22.4416938,59.3355049 L22.0622801,59.3355049 L22.0622801,61.7779805 L19.7829316,61.7779805 L19.7829316,58.1123127 C15.6062541,58.556873 11.447557,59.1538762 7.32013029,59.9077524 C7.2114658,59.927557 7.14032573,59.9992182 7.16403909,60.0643648 C8.82918567,64.667101 10.4456026,69.28 12.0132899,73.9030619 C12.0338762,73.9637785 12.1193485,73.9994788 12.2076873,73.9841042 C29.1460586,71.0155049 46.655114,71.0155049 63.5934853,73.9841042 C63.6818241,73.9994788 63.7670358,73.9637785 63.7878827,73.9030619 C65.35557,69.28 66.971987,64.667101 68.6371336,60.0643648 C68.6608469,59.9992182 68.5894463,59.927557 68.4810423,59.9077524 L68.4810423,59.9077524 Z" id="Fill-33" fill="#128843"></path>
                <path d="M42.6157655,18.1912704 C44.8229316,17.9937459 49.6492508,18.1055375 52.0046906,20.4166775 C52.1461889,20.5553094 52.0244951,20.8760912 51.821759,20.8213681 C48.3708143,19.8908143 42.9850163,24.4719218 39.4939414,21.5095765 C39.3970033,22.3760261 38.6157655,26.5573941 32.6556352,25.9377199 C32.514658,25.923127 32.4586319,25.7688599 32.5618241,25.6807818 C33.4858632,24.8925081 34.6191531,22.7210423 33.6469055,21.3336808 C30.612899,23.3472313 29.0457329,23.4340065 23.4512052,21.0108143 C23.268013,20.9315961 23.3777199,20.6347883 23.5919218,20.5868404 C24.7538762,20.3265147 27.5160912,19.3214332 29.9940065,18.8534202 C30.4654072,18.7642997 30.9305537,18.7095765 31.3777199,18.7038436 C28.8140717,18.0930293 27.6958958,17.5609121 26.0072964,17.5692508 C25.8222801,17.5702932 25.729772,17.3414984 25.8631922,17.2132899 C28.5073616,14.670228 33.299544,14.5414984 35.607557,16.4338762 L33.5398046,12.1138762 L36.0531596,11.7355049 C36.0531596,11.7355049 36.7087948,14.0390879 37.2956352,16.1104886 C39.912443,13.2427362 43.9619544,13.5330293 45.3256026,16.0372638 C45.406645,16.1860586 45.2737459,16.3616938 45.1067101,16.3330293 C43.7339414,16.0987622 42.792443,17.2414332 42.5962215,18.1863192 L42.6157655,18.1912704" id="Fill-34" fill="#128843"></path>
                <path d="M43.9992182,56.2569381 C43.5121824,56.2569381 43.1700326,56.5594788 43.077785,56.9938762 L44.8807818,56.9938762 C44.8414332,56.5727687 44.5386319,56.2569381 43.9992182,56.2569381" id="Fill-35" fill="#DB382A"></path>
                <path d="M23.7532248,56.7710749 C23.7532248,56.3064495 23.3441042,56.0059935 22.7108795,56.0059935 L22.0570684,56.0059935 L22.0570684,57.5916612 L22.7108795,57.5916612 C23.3732899,57.5916612 23.7532248,57.2925081 23.7532248,56.7710749" id="Fill-36" fill="#DB382A"></path>
                <path d="M11.1293811,33.5176547 L20.3220847,33.5176547 L20.3220847,36.8013029 L14.8020847,36.8013029 L14.8020847,38.6306189 L19.9150489,38.6306189 L19.9150489,41.8082085 L14.8020847,41.8082085 L14.8020847,46.3726384 L11.1293811,46.3726384 L11.1293811,33.5176547 Z M20.9613029,33.5176547 L26.1237785,33.5176547 C29.539544,33.5176547 31.4986319,35.1609121 31.4986319,38.0255375 C31.4986319,39.7672964 30.7739414,41.0407818 29.3435831,41.8147231 L32.0599349,46.3726384 L27.8350489,46.3726384 L25.5528339,42.5334202 L24.6342671,42.5334202 L24.6342671,46.3726384 L20.9613029,46.3726384 L20.9613029,33.5176547 Z M32.362215,33.5176547 L42.1563518,33.5176547 L42.1563518,36.8013029 L36.2472964,36.8013029 L36.2472964,38.2415635 L41.8553746,38.2415635 L41.8553746,41.4188925 L36.2472964,41.4188925 L36.2472964,43.0889902 L42.1563518,43.0889902 L42.1563518,46.3726384 L32.362215,46.3726384 L32.362215,33.5176547 Z M44.7525733,41.3620847 L44.9104886,41.5674267 C45.806645,42.7340717 46.8820847,43.3013681 48.1985668,43.3013681 C49.0191531,43.3013681 49.5291205,43.0220195 49.5291205,42.5725081 C49.5291205,42.4354397 49.5291205,42.0190228 48.4789577,41.8402606 L46.5667752,41.4861238 C45.4824756,41.3021498 44.567557,40.8531596 43.847557,40.1516612 C43.1317264,39.4168078 42.7708143,38.5185668 42.7708143,37.4770033 C42.7708143,36.2426059 43.2706189,35.2299674 44.2561564,34.4672313 C45.237785,33.7081433 46.4213681,33.3232573 47.7740717,33.3232573 C49.767557,33.3232573 51.4327036,34.0878176 52.7228664,35.5960912 L52.8544625,35.7500977 L50.5060586,38.2616287 L50.3418893,38.0641042 C49.5176547,37.0715309 48.6314007,36.5889251 47.6325733,36.5889251 C46.7559609,36.5889251 46.4435179,36.9289902 46.4435179,37.2471661 C46.4435179,37.3636482 46.4435179,37.7180456 47.3521824,37.8730945 L49.051987,38.1740717 C51.805342,38.6545928 53.2018241,40.0927687 53.2018241,42.4484691 C53.2018241,43.6729642 52.6829967,44.6803909 51.6599349,45.443127 C50.6452117,46.1993485 49.4261889,46.5670358 47.9332899,46.5670358 C45.6818241,46.5670358 43.654202,45.5645603 42.5091857,43.885342 L42.4041694,43.7308143 L44.7525733,41.3620847 Z M53.6549837,33.5176547 L57.3276873,33.5176547 L57.3276873,38.1529642 L60.8732248,38.1529642 L60.8732248,33.5176547 L64.5636482,33.5176547 L64.5636482,46.3726384 L60.8732248,46.3726384 L60.8732248,41.6310098 L57.3276873,41.6310098 L57.3276873,46.3726384 L53.6549837,46.3726384 L53.6549837,33.5176547 Z M19.7829316,58.1154397 L19.7829316,54.2504235 L22.9151792,54.2504235 C24.9214332,54.2504235 26.0719218,55.2187622 26.0719218,56.907101 C26.0719218,57.1408469 26.0482085,57.3597394 26.0039088,57.5648208 C26.1425407,57.5551792 26.2811726,57.547101 26.4200651,57.5377199 C26.7890554,56.7549186 27.4811726,56.2441694 28.3186971,56.0221498 C29.0162866,55.8697068 29.5259935,55.8457329 30.2842997,55.9945277 C31.0587622,56.1740717 31.691987,56.5967427 32.0810423,57.2479479 C32.2908143,57.2406515 32.5008469,57.2357003 32.7108795,57.2294463 L32.7108795,56.0461238 L33.3029316,56.0461238 L33.3029316,54.4862541 L35.5715961,54.4862541 L35.5715961,56.0461238 L36.4661889,56.0461238 L36.4661889,57.1562215 C36.6126384,57.1549186 36.7590879,57.1554397 36.9055375,57.1543974 L36.9055375,56.0502932 L37.4978502,56.0502932 L37.4978502,54.4904235 L39.7662541,54.4904235 L39.7662541,56.0502932 L40.6611075,56.0502932 L40.6611075,57.1736808 C40.8112052,57.1760261 40.9610423,57.1796743 41.1111401,57.1825407 C41.1921824,56.495114 41.4522476,55.9223453 41.9038436,55.4611075 C42.4565472,54.8849511 43.1739414,54.6027362 44.0440391,54.6027362 C44.9495765,54.6027362 45.6552443,54.8849511 46.1490554,55.4611075 C46.6092508,55.9979153 46.8521173,56.6381759 46.8836482,57.3886645 C47.012899,57.3954397 47.1424104,57.4027362 47.2716612,57.409772 L47.2716612,56.0565472 L49.538241,56.0565472 L49.538241,56.7194788 C49.690684,56.3731596 50.3603909,55.8947231 51.0225407,55.8947231 C52.1907492,55.8947231 52.9287296,56.5923127 53.1116612,57.8311401 C56.1547883,58.1029316 59.1898371,58.4536808 62.2118567,58.8885993 C66.2407818,54.1172638 68.5586971,47.9661238 68.1138762,40.8370033 C67.4183713,29.6901629 60.9224756,22.9800651 51.5512704,20.0216287 C51.7104886,20.1456678 51.8624104,20.2770033 52.0046906,20.4166775 C52.1461889,20.5550489 52.0244951,20.8758306 51.821759,20.8213681 C48.3708143,19.8908143 42.9850163,24.4719218 39.4939414,21.5095765 C39.3970033,22.3760261 38.6157655,26.5573941 32.6556352,25.9377199 C32.514658,25.923127 32.4586319,25.7688599 32.5618241,25.6807818 C33.4858632,24.8925081 34.6191531,22.7210423 33.6469055,21.3336808 C30.612899,23.3472313 29.0457329,23.4340065 23.4512052,21.0108143 C23.393355,20.9855375 23.367557,20.9381107 23.3620847,20.88443 C10.2981107,25.5327687 6.98136808,34.789316 7.59400651,44.6118567 C7.9465798,50.2647557 9.98905537,55.0892508 13.147101,58.9534853 C15.3527036,58.6303583 17.565342,58.3523127 19.7829316,58.1154397 L19.7829316,58.1154397 Z" id="Fill-37" fill="#DB382A"></path>
                <path d="M27.8259283,37.9900977 C27.8259283,37.0035179 27.0676221,36.8013029 25.9293811,36.8013029 L24.6342671,36.8013029 L24.6342671,39.2674919 L25.9293811,39.2674919 C27.6291857,39.2674919 27.8259283,38.5386319 27.8259283,37.9900977" id="Fill-38" fill="#DB382A"></path>
                <polyline id="Fill-39" fill="#FAD41F" points="27.2052117 56.5615635 27.1775896 56.5837134 27.2052117 56.5615635"></polyline>
                <polyline id="Fill-40" fill="#FAD41F" points="26.9573941 56.7778502 26.9714658 56.7645603 26.9573941 56.7778502"></polyline>
                <polyline id="Fill-41" fill="#FAD41F" points="26.5735505 57.2562866 26.5725081 57.2583713 26.5735505 57.2562866"></polyline>
                <path d="M26.0039088,57.5648208 L26.0036482,57.5661238 C26.1422801,57.5562215 26.2809121,57.5478827 26.419544,57.5387622 L26.4200651,57.5377199 C26.2811726,57.547101 26.1425407,57.5551792 26.0039088,57.5648208" id="Fill-42" fill="#FAD41F"></path>
                <path d="M26.0719218,56.907101 C26.0719218,57.0241042 26.0656678,57.1371987 26.0544625,57.2471661 C26.0659283,57.1374593 26.0719218,57.0241042 26.0719218,56.907101" id="Fill-43" fill="#FAD41F"></path>
                <path d="M51.6805212,55.9814984 C51.6406515,55.9702932 51.6,55.9606515 51.5585668,55.9515309 C51.6,55.9606515 51.6406515,55.9702932 51.6805212,55.9814984" id="Fill-44" fill="#FAD41F"></path>
                <path d="M51.254202,55.904886 C51.1788925,55.8983713 51.1020195,55.8947231 51.0225407,55.8947231 C51.1020195,55.8947231 51.1788925,55.8983713 51.254202,55.904886" id="Fill-45" fill="#FAD41F"></path>
                <path d="M51.8741368,56.0471661 C51.8389577,56.0330945 51.8035179,56.0200651 51.7670358,56.0080782 C51.8035179,56.0200651 51.8389577,56.0330945 51.8741368,56.0471661" id="Fill-46" fill="#FAD41F"></path>
                <path d="M51.473355,55.9340717 C51.4264495,55.9254723 51.3779805,55.9194788 51.3289902,55.9137459 C51.3779805,55.9194788 51.4264495,55.9254723 51.473355,55.9340717" id="Fill-47" fill="#FAD41F"></path>
                <path d="M36.4661889,57.1570033 C36.4917264,57.1567427 36.5170033,57.1562215 36.5422801,57.1559609 C36.5170033,57.1562215 36.4917264,57.1559609 36.4661889,57.1562215 L36.4661889,57.1570033" id="Fill-48" fill="#FAD41F"></path>
                <path d="M52.054202,56.1300326 C52.0231922,56.1136156 51.9921824,56.0974593 51.9598697,56.0826059 C51.9921824,56.0974593 52.0231922,56.1136156 52.054202,56.1300326" id="Fill-49" fill="#FAD41F"></path>
                <path d="M30.6220195,56.0935505 C30.597785,56.0852117 30.5740717,56.0758306 30.549316,56.068013 C30.5740717,56.0758306 30.597785,56.0852117 30.6220195,56.0935505" id="Fill-50" fill="#FAD41F"></path>
                <path d="M32.0807818,57.2476873 L32.0818241,57.2489902 C32.1282085,57.2476873 32.1745928,57.245342 32.2209772,57.2437785 C32.1743322,57.2450814 32.1276873,57.2463844 32.0810423,57.2479479 L32.0807818,57.2476873" id="Fill-51" fill="#FAD41F"></path>
                <path d="M40.6611075,57.174202 C40.6921173,57.1747231 40.7233876,57.1749837 40.7543974,57.1755049 C40.7233876,57.1749837 40.6921173,57.174202 40.6611075,57.1736808 L40.6611075,57.174202" id="Fill-52" fill="#FAD41F"></path>
                <polyline id="Fill-53" fill="#FAD41F" points="31.3331596 56.4489902 31.310228 56.4338762 31.3331596 56.4489902"></polyline>
                <path d="M30.8792182,56.1951792 C30.8549837,56.1842345 30.8310098,56.1732899 30.8062541,56.1628664 C30.8310098,56.1732899 30.8549837,56.1842345 30.8792182,56.1951792" id="Fill-54" fill="#FAD41F"></path>
                <path d="M28.0411726,56.1097068 C28.0161564,56.1185668 27.9919218,56.1284691 27.9671661,56.1378502 C27.9919218,56.1284691 28.0161564,56.1185668 28.0411726,56.1097068" id="Fill-55" fill="#FAD41F"></path>
                <polyline id="Fill-56" fill="#FAD41F" points="27.7613029 56.2251466 27.6990228 56.2545928 27.7613029 56.2251466"></polyline>
                <polyline id="Fill-57" fill="#FAD41F" points="31.1145277 56.3129642 31.0571987 56.2819544 31.1145277 56.3129642"></polyline>
                <path d="M41.9038436,55.4611075 C41.8407818,55.5254723 41.782671,55.592443 41.7271661,55.6607166 C41.782671,55.592443 41.8407818,55.5254723 41.9038436,55.4611075" id="Fill-58" fill="#FAD41F"></path>
                <polyline id="Fill-59" fill="#FAD41F" points="46.8620195 57.1158306 46.8612378 57.108013 46.8620195 57.1158306"></polyline>
                <polyline id="Fill-60" fill="#FAD41F" points="41.3764169 56.2214984 41.3498371 56.2829967 41.3764169 56.2214984"></polyline>
                <path d="M41.5059283,55.9791531 C41.4856026,56.0132899 41.4663192,56.0482085 41.4472964,56.083127 C41.4663192,56.0482085 41.4856026,56.0132899 41.5059283,55.9791531" id="Fill-61" fill="#FAD41F"></path>
                <polyline id="Fill-62" fill="#FAD41F" points="46.7614332 56.602215 46.750228 56.5649511 46.7614332 56.602215"></polyline>
                <polyline id="Fill-63" fill="#FAD41F" points="46.8213681 56.8544625 46.8171987 56.8336156 46.8213681 56.8544625"></polyline>
                <path d="M41.6664495,55.7409772 C41.6349186,55.7831922 41.6039088,55.8259283 41.5747231,55.8694463 C41.6039088,55.8259283 41.6349186,55.7831922 41.6664495,55.7409772" id="Fill-64" fill="#FAD41F"></path>
                <path d="M61.225798,15.153355 L58.499544,17.6213681 L58.8169381,17.9721173 C59.7623453,19.0170684 60.7007166,19.1179153 61.6307492,18.2759609 C62.5180456,17.4728339 62.4885993,16.5490554 61.5366775,15.4970684 L61.225798,15.153355" id="Fill-65" fill="#FAD41F"></path>
                <path d="M27.1603909,7.10175896 L26.3749837,7.37094463 L26.8909446,8.87765472 L27.6763518,8.60820847 C28.4067752,8.3580456 28.6845603,7.9770684 28.5063192,7.45667752 C28.3309446,6.94540717 27.9270358,6.83882736 27.1603909,7.10175896" id="Fill-66" fill="#FAD41F"></path>
                <path d="M62.8161564,19.5851466 C60.9128339,21.3084039 59.0386971,20.5180456 57.8144625,19.1658632 L56.1758958,17.35557 L61.1916612,12.8148534 L62.830228,14.6254072 C63.4780456,15.3407166 63.8712704,16.0914658 63.9919218,16.9584365 C64.1130945,17.8254072 63.7248208,18.7627362 62.8161564,19.5851466 Z M51.1765472,13.855114 L54.9844951,8.26241042 L59.1971336,11.1301629 L58.3278176,12.4065147 L55.6630619,10.5923127 L55.0819544,11.4465147 L57.6109446,13.1679479 L56.7744625,14.3971336 L54.2454723,12.6751792 L53.5934853,13.6325733 L56.2585016,15.4465147 L55.3891857,16.7233876 L51.1765472,13.855114 Z M48.025798,12.4682736 L50.7361564,6.26918567 L52.345798,6.97276873 L49.6351792,13.1718567 L48.025798,12.4682736 Z M47.4684039,7.97211726 L47.1194788,9.41732899 L44.4078176,8.7619544 L43.8230619,11.1825407 L42.1154397,10.7702932 L43.7042345,4.19335505 L48.3392834,5.31283388 L47.9765472,6.81381107 L45.0493811,6.10684039 L44.7570033,7.31726384 L47.4684039,7.97211726 Z M40.3460586,10.6287948 L38.5920521,10.5331596 L38.9613029,3.77745928 L40.7153094,3.87335505 L40.3460586,10.6287948 Z M34.7760261,5.43895765 L35.4011726,10.6225407 L33.6476873,10.8338762 L33.0225407,5.65055375 L31.2023453,5.87022801 L31.017329,4.33745928 L36.4114658,3.68677524 L36.5962215,5.21954397 L34.7760261,5.43895765 Z M29.9028013,11.6815635 L28.0461238,10.1037134 L27.3886645,10.3293811 L28.0677524,12.3103583 L26.4057329,12.8802606 L24.2126384,6.47921824 L26.7601303,5.60651466 C28.4310098,5.03400651 29.6859935,5.48091205 30.1740717,6.90553746 C30.4839088,7.8095114 30.3163518,8.57120521 29.6685342,9.2114658 L31.8110749,11.0274919 L29.9028013,11.6815635 Z M21.1468404,16.069316 L17.5364169,10.3481433 L21.8457329,7.62892508 L22.6697068,8.93446254 L19.9437134,10.6548534 L20.4948534,11.5278176 L23.082215,9.89550489 L23.8751792,11.1523127 L21.2880782,12.7851466 L21.9059283,13.7641694 L24.6319218,12.0440391 L25.4561564,13.3498371 L21.1468404,16.069316 Z M18.5803257,18.5975244 C17.8848208,19.3073616 17.0762215,19.6638436 16.1482736,19.6594545 C15.2200651,19.6552443 14.3976547,19.2948534 13.687557,18.5993485 C12.9777199,17.9035831 12.6214984,17.0955049 12.605342,16.1607818 C12.5957003,15.2190228 12.9284691,14.3966124 13.6242345,13.6867752 C14.3874919,12.9078827 15.3047557,12.5506189 16.3567427,12.6220195 L16.3932248,14.2115961 C15.7104886,14.1771987 15.3086645,14.2428664 14.8221498,14.7390228 C14.4779153,15.0908143 14.3252117,15.5085342 14.3437134,16 C14.362215,16.490684 14.5714658,16.925342 14.9573941,17.3034528 C15.3500977,17.6885993 15.7959609,17.8957655 16.2874267,17.9041042 C16.7786319,17.9129642 17.1932248,17.7381107 17.5444951,17.379544 C18.0781759,16.8351792 18.1615635,16.3364169 18.0307492,15.5460586 L19.6148534,15.6117264 C19.7829316,16.7223453 19.4381759,17.722215 18.5803257,18.5975244 Z M63.4274919,11.7529642 C56.6829967,5.32977199 47.5981759,1.7923127 37.8465147,1.7923127 C28.0948534,1.7923127 19.0102932,5.32977199 12.265798,11.7529642 C5.45928339,18.2353094 1.71074919,27.0684039 1.71074919,36.624886 C1.71074919,44.0364821 3.93771987,51.1583062 8.15061889,57.2208469 C8.68820847,57.9945277 9.25498371,58.7418893 9.84547231,59.4665798 C10.9438436,59.2833876 12.0448208,59.1145277 13.1468404,58.9529642 C9.98905537,55.0889902 7.9465798,50.2647557 7.59400651,44.6118567 C6.98136808,34.789316 10.2981107,25.5327687 23.3620847,20.88443 C23.3506189,20.7679479 23.4452117,20.6196743 23.5919218,20.5868404 C24.7538762,20.3265147 27.5160912,19.3214332 29.9940065,18.8534202 C30.4654072,18.7642997 30.9305537,18.7095765 31.3777199,18.7038436 C28.8140717,18.0930293 27.6958958,17.5609121 26.0072964,17.5692508 C25.8222801,17.5702932 25.729772,17.3414984 25.8631922,17.2132899 C28.5073616,14.670228 33.299544,14.5414984 35.607557,16.4338762 L33.5398046,12.1138762 L36.0531596,11.7355049 C36.0531596,11.7355049 36.7087948,14.0390879 37.2956352,16.1104886 C39.9127036,13.2427362 43.9619544,13.5332899 45.3256026,16.0372638 C45.406645,16.1860586 45.2737459,16.3616938 45.1067101,16.3330293 C43.7339414,16.0987622 42.792443,17.2414332 42.5962215,18.1863192 L42.6157655,18.1912704 C44.6895114,18.0057329 49.074658,18.0935505 51.5512704,20.0216287 C60.9224756,22.9800651 67.4183713,29.6901629 68.1138762,40.8370033 C68.5586971,47.9661238 66.2407818,54.1172638 62.2118567,58.8885993 C62.1738111,58.883127 62.1355049,58.8784365 62.0974593,58.8729642 C63.3532248,59.0527687 64.6074267,59.2437785 65.8585016,59.451987 C66.461759,58.7111401 67.0405212,57.9468404 67.588013,57.1551792 C71.7712052,51.1069707 73.9822801,44.0078176 73.9822801,36.624886 C73.9822801,27.0684039 70.2337459,18.2353094 63.4274919,11.7529642 L63.4274919,11.7529642 Z" id="Fill-67" fill="#F9D320"></path>
                <path d="M46.3158306,55.6737459 C46.2637134,55.6013029 46.2084691,55.5301629 46.1490554,55.4611075 C46.2084691,55.5301629 46.2637134,55.6013029 46.3158306,55.6737459" id="Fill-68" fill="#FAD41F"></path>
                <polyline id="Fill-69" fill="#FAD41F" points="52.6902932 56.6926384 52.6535505 56.6426059 52.6902932 56.6926384"></polyline>
                <polyline id="Fill-70" fill="#FAD41F" points="52.570684 56.5386319 52.5279479 56.4925081 52.570684 56.5386319"></polyline>
                <polyline id="Fill-71" fill="#FAD41F" points="52.7945277 56.8583713 52.766645 56.8104235 52.7945277 56.8583713"></polyline>
                <polyline id="Fill-72" fill="#FAD41F" points="52.4052117 56.3721173 52.4372638 56.3992182 52.4052117 56.3721173"></polyline>
                <polyline id="Fill-73" fill="#FAD41F" points="52.8826059 57.0308795 52.8661889 56.9941368 52.8826059 57.0308795"></polyline>
                <path d="M46.4594137,55.894202 C46.4367427,55.8556352 46.4109446,55.8183713 46.3861889,55.7808469 C46.4109446,55.8183713 46.4364821,55.8556352 46.4594137,55.894202" id="Fill-74" fill="#FAD41F"></path>
                <polyline id="Fill-75" fill="#FAD41F" points="46.6814332 56.3580456 46.6585016 56.301759 46.6814332 56.3580456"></polyline>
                <path d="M46.5811075,56.122215 C46.5680782,56.095114 46.5532248,56.0690554 46.5391531,56.042215 C46.5532248,56.0687948 46.5680782,56.095114 46.5811075,56.122215" id="Fill-76" fill="#FAD41F"></path>
                <path d="M52.2175896,56.2274919 C52.1912704,56.209772 52.1654723,56.1912704 52.1381107,56.1748534 C52.1654723,56.1912704 52.1912704,56.209772 52.2175896,56.2274919" id="Fill-77" fill="#FAD41F"></path>
                <path d="M64.6829967,63.4694463 C64.5618241,63.5937459 64.4122476,63.6544625 64.2337459,63.6544625 C64.0583713,63.6544625 63.9085342,63.5937459 63.7876221,63.4694463 C63.6664495,63.3451466 63.6059935,63.1921824 63.6059935,63.0105537 C63.6059935,62.8291857 63.6664495,62.6728339 63.7876221,62.5485342 C63.9085342,62.4211075 64.0583713,62.3572638 64.2337459,62.3572638 C64.4122476,62.3572638 64.5618241,62.4211075 64.6829967,62.5485342 C64.8072964,62.6728339 64.8677524,62.8291857 64.8677524,63.0105537 C64.8677524,63.1921824 64.8072964,63.3451466 64.6829967,63.4694463 Z M64.8518567,62.3859283 C64.6829967,62.2139414 64.4758306,62.1279479 64.2337459,62.1279479 C63.9914007,62.1279479 63.7876221,62.2139414 63.6185016,62.3859283 C63.4530293,62.5579153 63.3701629,62.7650814 63.3701629,63.0105537 C63.3701629,63.2526384 63.4530293,63.4598046 63.6185016,63.6320521 C63.7876221,63.8009121 63.9914007,63.8869055 64.2337459,63.8869055 C64.4758306,63.8869055 64.6829967,63.8009121 64.8518567,63.6320521 C65.0207166,63.4598046 65.1069707,63.2526384 65.1069707,63.0105537 C65.1069707,62.7650814 65.0207166,62.5579153 64.8518567,62.3859283 Z M64.2337459,62.9756352 L64.1284691,62.9756352 L64.1284691,62.7778502 L64.2337459,62.7778502 C64.3387622,62.7778502 64.3929642,62.8096417 64.3929642,62.8734853 C64.3929642,62.940456 64.3387622,62.9756352 64.2337459,62.9756352 Z M64.612899,62.8734853 C64.612899,62.6824756 64.4630619,62.5899674 64.2717915,62.5899674 L63.9119218,62.5899674 L63.9119218,63.3897068 L64.1284691,63.3897068 L64.1284691,63.1700326 L64.236873,63.1700326 L64.3898371,63.3897068 L64.6353094,63.3897068 L64.4471661,63.1348534 C64.5586971,63.0840391 64.612899,62.997785 64.612899,62.8734853 Z M51.9012378,64.9553094 C52.3163518,66.6749186 51.0717915,68.1172638 49.4499023,68.5089251 C47.828013,68.9003257 46.0239739,68.1936156 45.6088599,66.4740065 C45.3159609,65.260456 45.7563518,64.2767427 46.590228,63.6336156 C46.6699674,63.5684691 46.769772,63.5054072 46.8367427,63.482215 C46.4198046,63.5179153 46.1678176,63.497329 45.9137459,63.5828013 C45.8858632,63.5921824 45.8605863,63.562215 45.8743974,63.5361564 C46.1461889,63.0212378 46.7700326,62.7700326 47.211987,62.940456 C46.9117915,62.6783062 46.6759609,62.4690554 46.6759609,62.4690554 L47.0874267,62.1287296 C47.0874267,62.1287296 47.3508795,62.5175244 47.5424104,62.8005212 C47.7941368,62.2376547 48.4187622,62.0797394 48.7491857,62.389316 C48.7687296,62.407557 48.7575244,62.4406515 48.7309446,62.4448208 C48.5123127,62.4779153 48.4317915,62.7046254 48.4492508,62.8568078 L48.6389577,62.8330945 C50.1917915,62.6342671 51.5278176,63.4076873 51.9012378,64.9553094 Z M27.6591531,58.7979153 C27.3586971,58.6767427 27.1812378,58.4174593 27.3201303,58.1394137 C27.4246254,57.9309446 27.7313355,57.8459935 27.9656026,57.9374593 C28.2462541,58.0469055 28.2910749,58.3377199 28.4349186,58.4588925 C28.5586971,58.563127 28.7283388,58.5761564 28.8390879,58.5044951 C28.9209121,58.4515961 28.948013,58.3353746 28.9172638,58.229316 C28.8763518,58.0883388 28.7676873,58.0005212 28.6618893,57.9142671 C28.4732248,57.7610423 28.2071661,57.6291857 28.3682085,57.2109446 C28.5000651,56.8682736 28.8870358,56.8560261 28.8870358,56.8560261 C29.0407818,56.8388274 29.1783713,56.8852117 29.290684,56.9852769 C29.4407818,57.1192182 29.4699674,57.2985016 29.4446906,57.4895114 C29.421759,57.6638436 29.36,57.8168078 29.3279479,57.9895765 C29.290684,58.190228 29.397785,58.392443 29.6018241,58.4002606 C29.8699674,58.4104235 29.9504886,58.2042997 29.9833225,58.0737459 C30.0312704,57.8824756 30.0943322,57.7050163 30.2717915,57.5932248 C30.5263844,57.4327036 30.8802606,57.4678827 31.04443,57.7761564 C31.174202,58.0203257 31.1325081,58.3562215 30.9334202,58.5396743 C30.8440391,58.6220195 30.7366775,58.6509446 30.620456,58.6517264 C30.4536808,58.6530293 30.2871661,58.6488599 30.1323779,58.7267752 C30.027101,58.7799349 29.9812378,58.8661889 29.9812378,58.9824104 C29.9812378,59.0952443 30.0401303,59.1689902 30.1352443,59.2171987 C30.3147883,59.3076221 30.5128339,59.3261238 30.7067101,59.36 C30.9878827,59.4092508 31.2351792,59.5082736 31.3938762,59.7691205 L31.3980456,59.7761564 C31.5801954,60.0849511 31.3897068,60.529772 31.0314007,60.5485342 C30.2340065,60.5904886 30.0711401,59.6779153 29.7581759,59.68443 C29.6247557,59.6870358 29.5197394,59.8267101 29.5658632,59.9890554 C29.5911401,60.0781759 29.661759,60.2092508 29.7060586,60.2905537 C29.8624104,60.5774593 29.6312704,60.9018893 29.3605212,60.9292508 C28.9107492,60.975114 28.723127,60.7140065 28.7348534,60.4469055 C28.7478827,60.1472313 29.0019544,59.8407818 28.7413681,59.7104886 C28.468013,59.5736808 28.2459935,60.1081433 27.9843648,60.2272313 C27.7477524,60.335114 27.4191531,60.2514658 27.3024104,59.9887948 C27.2203257,59.8040391 27.2351792,59.4483388 27.6005212,59.3128339 C27.8287948,59.2281433 28.3371987,59.4235831 28.3632573,59.1757655 C28.3932248,58.8904235 27.8290554,58.8661889 27.6591531,58.7979153 Z M29.3573941,61.9246906 C31.1262541,61.9246906 32.5011075,60.8880782 32.5011075,58.9097068 C32.5011075,57.2865147 31.5906189,56.297329 30.2842997,55.9945277 C29.5259935,55.8457329 29.0162866,55.8697068 28.3186971,56.0221498 C27.0634528,56.354658 26.1308143,57.3331596 26.1308143,58.9097068 C26.1308143,60.8880782 27.5887948,61.9246906 29.3573941,61.9246906 Z M63.3672964,66.5527036 C63.3672964,67.1760261 63.1171336,67.6930293 62.6241042,68.0899023 C62.1576547,68.4745277 61.5444951,68.6704886 60.8028664,68.6704886 C59.8413029,68.6704886 59.0616287,68.4687948 58.3637785,68.0114658 L58.2319218,67.9184365 L59.1418893,66.4169381 C60.1868404,67.0869055 60.7267752,66.9865798 60.9326384,66.970684 C61.3847557,66.9357655 61.4337459,66.4357003 61.0598046,66.4445603 C60.7723779,66.4510749 60.2048208,66.510228 59.363127,66.1183062 C58.7744625,65.7579153 58.3906189,65.3383713 58.3906189,64.6459935 C58.3906189,64.0482085 58.6389577,63.5588274 59.1288599,63.1914007 C59.5997394,62.8383062 60.0500326,62.6428664 60.7215635,62.6118567 C61.5921824,62.5717264 62.2228013,62.7611726 63.0045603,63.1635179 L63.1692508,63.2729642 L62.3390228,64.6407818 C61.4295765,64.2764821 60.9581759,64.1771987 60.6282736,64.2402606 C60.2418241,64.3137459 60.2975896,64.6887296 60.582671,64.7267752 C60.8677524,64.7645603 61.3229967,64.6420847 62.1805863,64.9464495 C62.9250814,65.2437785 63.3672964,65.7276873 63.3672964,66.5527036 Z M49.5609121,61.7779805 L47.2716612,61.7779805 L47.2716612,56.0565472 L49.538241,56.0565472 L49.538241,56.7194788 C49.690684,56.3731596 50.3603909,55.8947231 51.0225407,55.8947231 C52.3796743,55.8947231 53.1580456,56.8341368 53.1580456,58.4719218 L53.1580456,61.7779805 L50.8714007,61.7779805 L50.8714007,58.6613681 C50.8714007,58.1811075 50.6639739,57.9374593 50.255114,57.9374593 C49.8264495,57.9374593 49.5609121,58.1180456 49.5609121,59.0175896 L49.5609121,61.7779805 Z M38.2712704,66.2749186 C38.0977199,66.4703583 37.8514658,66.5735505 37.5593485,66.5735505 C37.0876873,66.5735505 36.609772,66.2472964 36.609772,65.6239739 C36.609772,65.3764169 36.694202,65.1455375 36.8474267,64.9730293 C37.0209772,64.7778502 37.2672313,64.674658 37.5593485,64.674658 C38.0312704,64.674658 38.5089251,65.0006515 38.5089251,65.6239739 C38.5089251,65.8715309 38.4244951,66.102671 38.2712704,66.2749186 Z M38.541759,63.4277524 L38.3984365,63.2711401 C38.0010423,62.8372638 37.501759,62.6079479 36.9545277,62.6079479 C36.5683388,62.6079479 36.1615635,62.7249511 35.7777199,62.9464495 C34.9224756,63.4397394 34.4114658,64.4385668 34.4109442,65.618241 C34.4104235,66.803127 34.9211726,67.8063844 35.7777199,68.3014984 C36.1615635,68.5235179 36.570684,68.6407818 36.9610423,68.6407818 C37.5067101,68.6407818 38.0036482,68.4171987 38.3989577,67.9940065 L38.541759,67.8410423 L38.541759,68.4841694 L40.7403257,68.4841694 L40.7403257,62.769772 L38.541759,62.769772 L38.541759,63.4277524 Z M33.3029316,58.0185016 L32.7108795,58.0185016 L32.7108795,56.0461238 L33.3029316,56.0461238 L33.3029316,54.4862541 L35.5715961,54.4862541 L35.5715961,56.0461238 L36.4661889,56.0461238 L36.4661889,58.0185016 L35.5715961,58.0185016 L35.5715961,59.4522476 C35.5715961,59.7305537 35.6904235,59.8493811 35.9689902,59.8493811 L36.6874267,59.8493811 L36.6874267,61.8115961 L36.55557,61.8170684 C36.3246906,61.8269707 36.0161564,61.8402606 35.6956352,61.8402606 C34.175114,61.8402606 33.3029316,61.0772638 33.3029316,59.6002606 L33.3029316,58.0185016 Z M40.1636482,59.8538111 L40.8823453,59.8538111 L40.8823453,61.8157655 L40.750228,61.8214984 C40.5196091,61.8311401 40.2110749,61.84443 39.8902932,61.84443 C38.369772,61.84443 37.4978502,61.0816938 37.4978502,59.60443 L37.4978502,58.022671 L36.9055375,58.022671 L36.9055375,56.0502932 L37.4978502,56.0502932 L37.4978502,54.4904235 L39.7662541,54.4904235 L39.7662541,56.0502932 L40.6611075,56.0502932 L40.6611075,58.022671 L39.7662541,58.022671 L39.7662541,59.4564169 C39.7662541,59.7349837 39.8850814,59.8538111 40.1636482,59.8538111 Z M18.8849511,63.1403257 L16.9355049,63.1403257 L16.9355049,68.4914658 L14.7226059,68.4914658 L14.7226059,63.1403257 L12.7734202,63.1403257 L12.7734202,60.9639088 L18.8849511,60.9639088 L18.8849511,63.1403257 Z M44.4375244,66.5639088 L45.1570033,66.5639088 L45.1570033,68.5276873 L45.024886,68.5334202 C44.7937459,68.5433225 44.4849511,68.5566124 44.1641694,68.5566124 C42.6423453,68.5566124 41.7693811,67.7928339 41.7693811,66.3145277 L41.7693811,64.7312052 L41.1768078,64.7312052 L41.1768078,62.7572638 L41.7693811,62.7572638 L41.7693811,61.1958306 L44.0398697,61.1958306 L44.0398697,62.7572638 L44.9355049,62.7572638 L44.9355049,64.7312052 L44.0398697,64.7312052 L44.0398697,66.1662541 C44.0398697,66.4448208 44.1589577,66.5639088 44.4375244,66.5639088 Z M34.0291857,65.1783713 L34.0291857,68.4914658 L31.7237785,68.4914658 L31.7237785,65.3792834 C31.7237785,64.8904235 31.5147883,64.6426059 31.1022801,64.6426059 C30.6918567,64.6426059 30.6095114,64.9000651 30.582671,64.9847557 C30.5117915,65.2385668 30.4998046,65.3834528 30.4998046,65.6912052 L30.4998046,68.4914658 L28.2277524,68.4914658 L28.2277524,65.3792834 C28.2277524,64.8904235 28.015114,64.6426059 27.5953094,64.6426059 C27.356873,64.6426059 27.2010423,64.7585668 27.1400651,64.8578502 C27.0970684,64.9224756 27.0647557,65.0394788 27.04443,65.1215635 C27.0037785,65.356873 27.0037785,65.4410423 27.0037785,65.6912052 L27.0037785,68.4914658 L24.7953094,68.4914658 L24.7953094,62.7572638 L26.9816287,62.7572638 L26.9800651,63.2961564 C27.135114,62.9800651 27.726645,62.6079479 28.5563518,62.6079479 C29.2393485,62.6079479 29.7837134,62.8427362 30.1300326,63.2867752 L30.1912704,63.3654723 L30.2574593,63.290684 C30.6704886,62.8231922 31.1439739,62.6235831 31.8410423,62.6235831 C32.4990228,62.6235831 34.0291857,62.8727036 34.0291857,65.1783713 Z M21.2727036,66.5378502 C20.7210423,66.5378502 20.2300977,66.1203909 20.2300977,65.5455375 C20.2300977,64.9641694 20.7210423,64.5420195 21.2727036,64.5420195 C21.8332248,64.5420195 22.3153094,64.9547883 22.3153094,65.5455375 C22.3153094,66.1388925 21.8418241,66.5378502 21.2727036,66.5378502 Z M22.1957003,62.708013 C21.436873,62.5589577 21.0186319,62.5831922 20.3207818,62.7356352 C19.0647557,63.0681433 18.1315961,64.0471661 18.1315961,65.6244951 C18.1315961,67.6036482 19.6484691,68.6407818 21.3141368,68.6407818 C22.9800651,68.6407818 24.4135505,67.6036482 24.4135505,65.6244951 C24.4135505,64.0005212 23.5025407,63.0108143 22.1957003,62.708013 Z M22.0570684,56.0059935 L22.7108795,56.0059935 C23.3441042,56.0059935 23.7532248,56.3064495 23.7532248,56.7710749 C23.7532248,57.2925081 23.3732899,57.5916612 22.7108795,57.5916612 L22.0570684,57.5916612 L22.0570684,56.0059935 Z M22.0622801,59.3355049 L22.4416938,59.3355049 L23.8707492,61.7779805 L26.4375244,61.7779805 L24.8508143,59.1150489 L24.922215,59.0717915 C25.6849511,58.6105537 26.0719218,57.882215 26.0719218,56.907101 C26.0719218,55.2187622 24.9214332,54.2504235 22.9151792,54.2504235 L19.7829316,54.2504235 L19.7829316,61.7779805 L22.0622801,61.7779805 L22.0622801,59.3355049 Z M54.2676221,64.9993485 C54.3598697,64.5649511 54.7020195,64.2624104 55.1890554,64.2624104 C55.7284691,64.2624104 56.0312704,64.5779805 56.0706189,64.9993485 L54.2676221,64.9993485 Z M55.2338762,62.6079479 C54.3637785,62.6079479 53.6463844,62.8901629 53.0936808,63.4665798 C52.5409772,64.0310098 52.2704886,64.7601303 52.2704886,65.6656678 C52.2704886,66.5829316 52.56443,67.3120521 53.1523127,67.8410423 C53.740456,68.3702932 54.4813029,68.6407818 55.375114,68.6407818 C56.2738762,68.6407818 57.2281433,68.4813029 57.9908795,67.669316 L56.6029967,66.3635179 C56.3108795,66.7484039 55.9041042,66.8179805 55.3514007,66.8179805 C54.8810423,66.8179805 54.3734202,66.5592182 54.2676221,66.1008469 L58.068013,66.1008469 L58.0797394,65.5598697 C58.0797394,64.7364169 57.8327036,64.0427362 57.3388925,63.4665798 C56.8450814,62.8901629 56.1394137,62.6079479 55.2338762,62.6079479 Z M43.9992182,56.2569381 C44.5386319,56.2569381 44.8414332,56.5727687 44.8807818,56.9938762 L43.077785,56.9938762 C43.1700326,56.5594788 43.5121824,56.2569381 43.9992182,56.2569381 Z M44.1852769,60.63557 C45.0840391,60.63557 46.0383062,60.4760912 46.8010423,59.6641042 L45.4131596,58.3580456 C45.1210423,58.7431922 44.7142671,58.8127687 44.1615635,58.8127687 C43.6912052,58.8127687 43.1835831,58.5540065 43.077785,58.0953746 L46.8781759,58.0953746 L46.8899023,57.5543974 C46.8899023,56.7312052 46.6428664,56.0375244 46.1490554,55.4611075 C45.6552443,54.8849511 44.9495765,54.6027362 44.0440391,54.6027362 C43.1739414,54.6027362 42.4565472,54.8849511 41.9038436,55.4611075 C41.3511401,56.025798 41.0806515,56.754658 41.0806515,57.660456 C41.0806515,58.5777199 41.3745928,59.3065798 41.9624756,59.8358306 C42.5506189,60.3650814 43.2914658,60.63557 44.1852769,60.63557 L44.1852769,60.63557 Z" id="Fill-78" fill="#F2E93C"></path>
                <path d="M48.1985668,43.3013681 C46.8820847,43.3013681 45.806645,42.7340717 44.9104886,41.5674267 L44.7525733,41.3620847 L42.4041694,43.7308143 L42.5091857,43.885342 C43.654202,45.5645603 45.6818241,46.5670358 47.9332899,46.5670358 C49.4261889,46.5670358 50.6452117,46.1993485 51.6599349,45.443127 C52.6829967,44.6803909 53.2018241,43.6729642 53.2018241,42.4484691 C53.2018241,40.0927687 51.805342,38.6545928 49.051987,38.1740717 L47.3521824,37.8730945 C46.4435179,37.7180456 46.4435179,37.3636482 46.4435179,37.2471661 C46.4435179,36.9289902 46.7559609,36.5889251 47.6325733,36.5889251 C48.6314007,36.5889251 49.5176547,37.0715309 50.3418893,38.0641042 L50.5060586,38.2616287 L52.8544625,35.7500977 L52.7228664,35.5960912 C51.4327036,34.0878176 49.767557,33.3232573 47.7740717,33.3232573 C46.4213681,33.3232573 45.237785,33.7081433 44.2561564,34.4672313 C43.2706189,35.2299674 42.7708143,36.2426059 42.7708143,37.4770033 C42.7708143,38.5185668 43.1317264,39.4168078 43.847557,40.1516612 C44.567557,40.8531596 45.4824756,41.3021498 46.5667752,41.4861238 L48.4789577,41.8402606 C49.5291205,42.0190228 49.5291205,42.4354397 49.5291205,42.5725081 C49.5291205,43.0220195 49.0191531,43.3013681 48.1985668,43.3013681" id="Fill-79" fill="#FFFFFE"></path>
                <polyline id="Fill-80" fill="#FFFFFE" points="64.5636482 46.3726384 64.5636482 33.5176547 60.8732248 33.5176547 60.8732248 38.1529642 57.3276873 38.1529642 57.3276873 33.5176547 53.6549837 33.5176547 53.6549837 46.3726384 57.3276873 46.3726384 57.3276873 41.6310098 60.8732248 41.6310098 60.8732248 46.3726384 64.5636482 46.3726384"></polyline>
                <polyline id="Fill-81" fill="#FFFFFE" points="42.1563518 36.8013029 42.1563518 33.5176547 32.362215 33.5176547 32.362215 46.3726384 42.1563518 46.3726384 42.1563518 43.0889902 36.2472964 43.0889902 36.2472964 41.4188925 41.8553746 41.4188925 41.8553746 38.2415635 36.2472964 38.2415635 36.2472964 36.8013029 42.1563518 36.8013029"></polyline>
                <polyline id="Fill-82" fill="#FFFFFE" points="20.3220847 36.8013029 20.3220847 33.5176547 11.1293811 33.5176547 11.1293811 46.3726384 14.8020847 46.3726384 14.8020847 41.8082085 19.9150489 41.8082085 19.9150489 38.6306189 14.8020847 38.6306189 14.8020847 36.8013029 20.3220847 36.8013029"></polyline>
                <path d="M25.9293811,39.2674919 L24.6342671,39.2674919 L24.6342671,36.8013029 L25.9293811,36.8013029 C27.0676221,36.8013029 27.8259283,37.0035179 27.8259283,37.9900977 C27.8259283,38.5386319 27.6291857,39.2674919 25.9293811,39.2674919 Z M31.4986319,38.0255375 C31.4986319,35.1609121 29.539544,33.5176547 26.1237785,33.5176547 L20.9613029,33.5176547 L20.9613029,46.3726384 L24.6342671,46.3726384 L24.6342671,42.5334202 L25.5528339,42.5334202 L27.8350489,46.3726384 L32.0599349,46.3726384 L29.3435831,41.8147231 C30.7739414,41.0407818 31.4986319,39.7672964 31.4986319,38.0255375 L31.4986319,38.0255375 Z" id="Fill-83" fill="#FFFFFE"></path>
            </g>
        </g>
    </g>
</svg>