<svg width="709" height="559" viewBox="0 0 709 559" fill="none" xmlns="http://www.w3.org/2000/svg">
<g clip-path="url(#clip0_710_8)">
<path d="M0 31.4372V527.224C0 544.396 14.188 558.584 31.36 558.584H677.973C695.145 558.584 709.333 544.396 709.333 527.224V31.4372C709.333 14.2652 695.145 0.0771484 677.973 0.0771484H31.36C14.188 0.0771484 0 14.2652 0 31.4372V31.4372ZM123.948 506.317H52.2653V431.65H123.948V506.317ZM123.948 380.135H52.2653V305.468H123.948V380.135ZM123.948 253.197H52.2653V178.53H123.948V253.197ZM123.948 127.014H52.2653V52.3478H123.948V127.014ZM428.588 300.988L292.695 383.868C275.523 394.321 253.867 382.373 253.867 362.217V196.457C253.867 176.296 275.517 164.353 292.695 174.806L428.588 257.687C445.015 268.14 445.015 291.285 428.588 300.989V300.988ZM657.068 506.321H570.453V431.654H657.068V506.321ZM657.068 380.139H570.453V305.472H657.068V380.139ZM657.068 253.201H570.453V178.534H657.068V253.201ZM657.068 127.018H570.453V52.3518H657.068V127.018Z" fill="black"/>
</g>
<defs>
<clipPath id="clip0_710_8">
<rect width="709" height="559" fill="white"/>
</clipPath>
</defs>
</svg>
